<svg id="svg" version="1.1" xmlns="http://www.w3.org/2000/svg" xmlns:xlink="http://www.w3.org/1999/xlink" width="400" height="400" viewBox="0, 0, 400,400"><g id="svgg"><path id="path0" d="M0.000 200.000 L 0.000 400.000 200.000 400.000 L 400.000 400.000 400.000 200.000 L 400.000 0.000 200.000 0.000 L 0.000 0.000 0.000 200.000 M380.000 6.122 C 386.465 8.685,390.665 12.191,393.335 17.253 C 395.805 21.938,395.601 5.367,395.594 200.475 C 395.589 369.227,395.554 377.906,394.878 380.000 C 392.534 387.261,387.539 392.260,380.037 394.853 C 376.915 395.932,24.259 396.036,21.213 394.959 C 13.748 392.318,8.775 387.328,6.109 379.800 C 4.999 376.667,5.006 24.500,6.116 21.400 C 9.363 12.334,16.433 6.304,24.800 5.464 C 31.151 4.827,378.355 5.470,380.000 6.122 M143.867 115.867 C 143.720 116.013,143.600 152.463,143.600 196.867 L 143.600 277.600 201.204 277.600 L 258.808 277.600 258.704 257.900 L 258.600 238.200 228.400 237.994 C 211.790 237.880,198.155 237.745,198.100 237.694 C 198.045 237.642,198.000 210.259,198.000 176.843 C 198.000 121.809,197.940 116.063,197.367 115.843 C 196.500 115.510,144.200 115.534,143.867 115.867 " stroke="none" fill="#fbfbfc" fill-rule="evenodd"></path><path id="path1" d="M24.400 6.367 C 24.070 6.555,23.014 6.839,22.054 6.998 C 15.420 8.092,8.690 14.946,6.734 22.600 C 5.921 25.781,6.012 375.703,6.827 378.800 C 7.792 382.470,9.981 386.385,12.413 388.793 C 14.332 390.692,18.302 393.154,19.500 393.186 C 19.775 393.194,20.000 393.380,20.000 393.600 C 20.000 393.820,20.508 394.000,21.129 394.000 C 21.750 394.000,23.055 394.271,24.029 394.602 C 25.598 395.136,45.831 395.192,201.200 395.090 C 385.910 394.970,377.472 395.052,381.460 393.341 C 382.154 393.043,382.844 392.800,382.995 392.800 C 383.366 392.800,386.966 390.277,387.133 389.900 C 387.207 389.735,387.432 389.600,387.633 389.600 C 388.109 389.600,389.600 388.109,389.600 387.633 C 389.600 387.432,389.735 387.207,389.900 387.133 C 390.863 386.705,394.000 381.088,394.000 379.791 C 394.000 379.301,394.270 378.135,394.600 377.200 C 395.512 374.614,395.512 26.045,394.600 23.862 C 394.270 23.072,393.999 22.015,393.998 21.513 C 393.996 19.835,390.998 14.580,388.807 12.414 C 386.314 9.949,382.785 7.977,378.898 6.876 C 376.329 6.148,25.662 5.644,24.400 6.367 M198.701 176.300 L 198.803 237.200 228.769 237.200 C 245.250 237.200,259.019 237.309,259.367 237.443 C 260.454 237.860,260.316 277.403,259.226 277.986 C 258.148 278.563,144.252 278.563,143.174 277.986 C 142.387 277.565,141.887 116.247,142.669 115.464 C 142.818 115.316,155.463 115.241,170.769 115.297 L 198.600 115.400 198.701 176.300 " stroke="none" fill="#6414fc" fill-rule="evenodd"></path><path id="path2" d="M142.667 115.467 C 142.216 115.918,142.348 277.521,142.800 277.800 C 143.066 277.964,143.200 250.804,143.200 196.624 C 143.200 151.841,143.140 115.200,143.067 115.200 C 142.993 115.200,142.813 115.320,142.667 115.467 " stroke="none" fill="#8494fc" fill-rule="evenodd"></path><path id="path3" d="M24.800 5.464 C 16.433 6.304,9.363 12.334,6.116 21.400 C 5.006 24.500,4.999 376.667,6.109 379.800 C 8.775 387.328,13.748 392.318,21.213 394.959 C 24.259 396.036,376.915 395.932,380.037 394.853 C 387.539 392.260,392.534 387.261,394.878 380.000 C 395.951 376.676,396.000 24.385,394.928 21.075 C 393.043 15.257,388.352 9.815,383.200 7.472 C 378.236 5.215,395.257 5.413,202.200 5.366 C 105.400 5.343,25.570 5.387,24.800 5.464 M379.000 6.668 C 386.542 8.719,392.365 14.487,394.478 22.000 C 395.245 24.727,395.225 376.598,394.458 379.200 C 392.924 384.401,386.102 392.800,383.412 392.800 C 383.252 392.800,382.554 393.053,381.860 393.363 C 377.397 395.356,390.291 395.233,200.000 395.103 C 59.379 395.008,23.437 394.881,22.000 394.477 C 14.573 392.388,8.695 386.455,6.668 379.000 C 5.895 376.154,5.828 25.653,6.601 22.553 C 8.524 14.835,14.503 8.738,22.203 6.642 C 24.827 5.928,376.371 5.954,379.000 6.668 M143.200 196.599 L 143.200 278.003 201.100 277.901 L 259.000 277.800 259.104 258.046 C 259.179 243.791,259.082 238.139,258.755 237.746 C 258.380 237.294,253.158 237.200,228.352 237.200 L 198.403 237.200 198.301 176.300 L 198.200 115.400 170.700 115.297 L 143.200 115.194 143.200 196.599 M197.367 115.843 C 197.940 116.063,198.000 121.809,198.000 176.843 C 198.000 210.259,198.045 237.642,198.100 237.694 C 198.155 237.745,211.790 237.880,228.400 237.994 L 258.600 238.200 258.704 257.900 L 258.808 277.600 201.204 277.600 L 143.600 277.600 143.600 196.867 C 143.600 152.463,143.720 116.013,143.867 115.867 C 144.200 115.534,196.500 115.510,197.367 115.843 " stroke="none" fill="#a474fc" fill-rule="evenodd"></path><path id="path4" d="M198.400 176.320 L 198.600 237.400 198.701 176.621 C 198.757 143.193,198.667 115.707,198.501 115.541 C 198.336 115.376,198.290 142.726,198.400 176.320 M258.755 237.746 C 259.082 238.139,259.179 243.791,259.104 258.046 L 259.000 277.800 201.200 278.002 L 143.400 278.204 200.926 278.302 C 239.999 278.369,258.701 278.267,259.226 277.986 C 260.316 277.403,260.454 237.860,259.367 237.443 C 258.406 237.074,258.258 237.147,258.755 237.746 " stroke="none" fill="#971dfc" fill-rule="evenodd"></path></g></svg>